# xmcd CD database file
#
# Track frame offsets:
#	225
#	14707
#	27737
#	38351
#	52463
#	62916
#	74685
#	91218
#	104692
#	115144
#	129569
#	146978
#	157276
#	176614
#	189923
#	202861
#	214723
#	226150
#	240630
#
# Disc length: 3403 seconds
#
# Revision: 2
# Processed by: cddbd v1.5.2PL0 Copyright (c) Steve Scherf et al.
# Submitted via: CDex 1.70beta2
#
DISCID=230d4813
DTITLE=Fesaci - Fesaci 2000
DYEAR=1996
DGENRE=Country
TTITLE0=Dialog 2000
TTITLE1=Vis co ti slusi
TTITLE2=Absolutni slepice
TTITLE3=Presny cas
TTITLE4=Hotel Zvon
TTITLE5=Doktore pomozte
TTITLE6=Zvony
TTITLE7=Prodavac
TTITLE8=Rychla jizda, diskoteka, dzus
TTITLE9=Malerova pisen
TTITLE10=Pani ma se ma
TTITLE11=Sta pisen
TTITLE12=Co dest by nesmyl
TTITLE13=Neber si ma mila brzdare
TTITLE14=Kovbojove a klauni
TTITLE15=Nez nam dojde kyslik
TTITLE16=Vanocni
TTITLE17=Mam te rad kdyz spis
TTITLE18=Tata se vratil domu
EXTD=YEAR: 1996
EXTT0=
EXTT1=
EXTT2=
EXTT3=
EXTT4=
EXTT5=
EXTT6=
EXTT7=
EXTT8=
EXTT9=
EXTT10=
EXTT11=
EXTT12=
EXTT13=
EXTT14=
EXTT15=
EXTT16=
EXTT17=
EXTT18=
PLAYORDER=
